<?xml version="1.0" encoding="UTF-8"?>
<!DOCTYPE svg PUBLIC "-//W3C//DTD SVG 1.1//EN" "http://www.w3.org/Graphics/SVG/1.1/DTD/svg11.dtd">
<svg xmlns="http://www.w3.org/2000/svg" version="1.1" width="500px" height="500px" style="shape-rendering:geometricPrecision; text-rendering:geometricPrecision; image-rendering:optimizeQuality; fill-rule:evenodd; clip-rule:evenodd" xmlns:xlink="http://www.w3.org/1999/xlink">
<g><path style="opacity:1" fill="#fefefe" d="M -0.5,-0.5 C 166.167,-0.5 332.833,-0.5 499.5,-0.5C 499.5,166.167 499.5,332.833 499.5,499.5C 332.833,499.5 166.167,499.5 -0.5,499.5C -0.5,332.833 -0.5,166.167 -0.5,-0.5 Z"/></g>
<g><path style="opacity:1" fill="#969696" d="M 275.5,117.5 C 244.815,116.841 214.482,117.508 184.5,119.5C 183.596,118.791 183.263,117.791 183.5,116.5C 214.338,116.169 245.005,116.502 275.5,117.5 Z"/></g>
<g><path style="opacity:1" fill="#040404" d="M 275.5,117.5 C 288.266,117.807 299.099,122.473 308,131.5C 315.914,150.767 311.414,166.601 294.5,179C 287.833,182.667 281.167,186.333 274.5,190C 302.773,194.358 315.94,210.858 314,239.5C 312.317,255.502 304.151,266.669 289.5,273C 282.256,274.916 274.923,276.416 267.5,277.5C 273.746,308.167 261.746,327.667 231.5,336C 208.033,341.087 185.366,338.753 163.5,329C 155.729,325.033 148.562,320.2 142,314.5C 141.167,301.154 141.334,287.821 142.5,274.5C 149.346,300.702 165.012,319.536 189.5,331C 208.438,337.103 226.438,335.103 243.5,325C 259.453,309.42 259.453,293.753 243.5,278C 223.581,276.856 203.581,276.023 183.5,275.5C 191.055,274.903 195.388,270.903 196.5,263.5C 196.167,262.833 195.833,262.167 195.5,261.5C 176.26,258.962 159.76,250.962 146,237.5C 137.765,220.27 141.265,205.77 156.5,194C 169.062,185.09 183.062,180.257 198.5,179.5C 198.925,162.785 198.425,146.118 197,129.5C 195.303,122.96 191.136,119.627 184.5,119.5C 214.482,117.508 244.815,116.841 275.5,117.5 Z"/></g>
<g><path style="opacity:1" fill="#fcfcfc" d="M 220.5,121.5 C 235.17,121.333 249.837,121.5 264.5,122C 285.743,124.991 293.576,136.824 288,157.5C 284.04,166.795 277.874,174.295 269.5,180C 264.338,183.749 259.004,187.249 253.5,190.5C 243.006,185.46 232.006,182.127 220.5,180.5C 220.5,160.833 220.5,141.167 220.5,121.5 Z"/></g>
<g><path style="opacity:1" fill="#fcfcfc" d="M 191.5,183.5 C 193.833,183.5 196.167,183.5 198.5,183.5C 198.5,202.167 198.5,220.833 198.5,239.5C 185.881,237.685 174.714,232.685 165,224.5C 158.52,214.638 159.187,205.305 167,196.5C 174.177,190.163 182.344,185.83 191.5,183.5 Z"/></g>
<g><path style="opacity:1" fill="#acacac" d="M 222.5,187.5 C 221.167,195.833 221.167,204.167 222.5,212.5C 222.44,213.043 222.107,213.376 221.5,213.5C 220.167,204.5 220.167,195.5 221.5,186.5C 222.107,186.624 222.44,186.957 222.5,187.5 Z"/></g>
<g><path style="opacity:1" fill="#f8f8f8" d="M 222.5,187.5 C 229.445,189.638 235.445,193.305 240.5,198.5C 234.195,202.809 228.195,207.475 222.5,212.5C 221.167,204.167 221.167,195.833 222.5,187.5 Z"/></g>
<g><path style="opacity:1" fill="#fbfbfb" d="M 269.5,199.5 C 284.98,205.349 292.647,216.682 292.5,233.5C 292.003,252.137 283.17,264.804 266,271.5C 260.294,261.799 252.127,254.966 241.5,251C 234.765,248.375 227.932,246.208 221,244.5C 220.333,236.167 220.333,227.833 221,219.5C 227.684,212.242 235.517,206.575 244.5,202.5C 250.239,208.982 255.739,215.649 261,222.5C 264.135,214.925 266.969,207.259 269.5,199.5 Z"/></g>
<g><path style="opacity:1" fill="#cfcfcf" d="M 220.5,267.5 C 224.911,268.693 229.244,270.193 233.5,272C 229.179,272.499 224.846,272.666 220.5,272.5C 220.5,270.833 220.5,269.167 220.5,267.5 Z"/></g>
</svg>
