<?xml version="1.0" encoding="UTF-8"?>
<svg version="1.1" viewBox="0 0 2000 2000" width="1280" height="1280" xmlns="http://www.w3.org/2000/svg">
<path transform="translate(0)" d="m0 0h2e3v2e3h-2e3z" fill="#FEFEFE"/>
<path transform="translate(219,590)" d="m0 0h354l21 1 28 4 26 7 16 6 21 11 13 10 9 8 10 13 9 17 5 16 2 11 1 18-1 16-5 24-7 18-9 17-9 12-12 14-11 10-14 11-13 9-21 13-29 15-22 10-1 2h18l24 5 18 6 19 9 14 9 10 8 10 9 8 8 10 13 9 15 8 16 8 24 4 21 2 17v25l-2 20-5 23-7 21-11 21-10 14-9 10-11 11-16 12-20 11-21 8-24 6-15 2-16 1h-26l4 16 3 31v10l-2 23-4 21-8 24-8 16-7 12-11 13-11 12-13 11-11 8-21 12-20 9-17 6-21 6-31 6-28 3-19 1h-22l-34-2-31-4-35-7-36-11-34-14-31-16-23-15-14-10-11-9-12-9v-160l5-1 3 1 16 48 10 23 8 16 10 18 13 19 13 17 12 13 7 8 16 15 14 11 17 12 19 11 23 11 27 9 23 5 26 3h24l23-2 24-4 23-6 23-8 21-11 13-9 14-12 11-14 9-16 5-15 3-14 1-10-1-23-5-20-7-17-10-16-8-10-7-8-7-6-232-1-2-3 1-5 2-1 15-2 11-4 8-6 7-9 5-11 4-13 2-10-15-4-43-10-31-9-32-12-29-14-15-9-17-12-11-9v-2l-4-2-10-11-11-16-8-16-4-13-2-12v-22l3-18 6-17 10-19 10-14 11-12 9-10 11-9 13-10 19-12 23-12 29-11 25-7 31-6 33-4h4l-1-140-3-30-4-19-5-14-6-11-3-3v-2l-4-2-7-5-13-4-11-1-2-1-1-7z" fill="#010101"/>
<path transform="translate(367,607)" d="m0 0h141l25 2 24 4 20 6 19 8 15 10 10 9 5 5 7 10 6 13 4 16 1 9-1 25-3 15-6 18-8 16-7 11-9 12-11 12-18 18-14 11-10 8-17 12-27 18-8 5-6-1-30-14-29-11-30-9-42-9-1-1z" fill="#FEFEFE"/>
<path transform="translate(555,918)" d="m0 0 9 2 12 4 16 8 12 9 10 9 9 10 10 15 9 19 6 20 4 23 1 11v19l-3 24-6 23-7 18-10 18-12 16-14 14-12 9-14 8-11 5-19 6-4-1-11-21-10-14-9-10-7-7-17-13-18-11-15-8-19-8-36-12-31-8-1-2v-90l7-8 18-18 11-9 16-12 17-11 22-12 5-1 13 14 8 10 11 14 14 19 12 16 4-10 9-24 20-52z" fill="#FEFEFE"/>
<path transform="translate(276,847)" d="m0 0 2 1 1 226-2 1-42-12-23-7-27-11-17-9-14-10-13-11-10-12-7-12-5-15-1-5v-19l4-15 8-16 6-9 8-10 7-7 11-9 14-10 16-9 22-9 17-5 24-4z" fill="#FEFEFE"/>
<path transform="translate(1552,1247)" d="m0 0h34l12 4 8 7 4 10v8l-3 8-6 8-9 5v2l12 5 7 8 5 11 2 10v15l-3 15-5 10-9 10-10 6-7 2-17 1-22-2-3-1-1-3v-136l5-2z" fill="#010101"/>
<path transform="translate(969,1247)" d="m0 0h34l13 4 8 7 3 7 1 11-3 8-6 8-9 5h-2v2l10 3 6 4 5 6 4 8 2 7 1 8v13l-3 14-4 9-6 8-8 7-9 4-11 2h-12l-20-2-3-1-1-3v-135l1-2z" fill="#010101"/>
<path transform="translate(1430,1246)" d="m0 0h4l4 16 12 54 14 62 5 11v3h-23l-1-1-1-14-2-6-12-3h-11l-13 4-2 4-1 15-1 1h-22l6-14 8-34 19-84 3-11 5-2z" fill="#010101"/>
<path transform="translate(367,863)" d="m0 0 9 3 16 8 14 8 19 14 13 11 8 8v3l-16 10-19 14-17 13-14 12-11 10h-2z" fill="#FEFEFE"/>
<path transform="translate(644,1246)" d="m0 0 14 1 12 4 1 1v23h-2l-4-6-6-5-9-3h-8l-8 3-5 7-1 9 3 7 6 8 10 9 10 8 11 10 9 13 5 13v16l-4 11-6 8-10 6-14 3-15-1-14-4-4-4v-24l3 1 6 8 9 6 6 2h13l6-3h2l2-4 2-6v-7l-3-8-8-10-12-11-11-9-8-8-7-11-4-9-1-5v-10l3-10 6-9 10-6 7-3z" fill="#010101"/>
<path transform="translate(1804,1246)" d="m0 0h13l21 2 8 2v16l-21-4h-3l-1 129h-12l-6-1-1-32v-97l-22 5h-3v-9l1-7 14-3z" fill="#010101"/>
<path transform="translate(1271,1246)" d="m0 0h5v131l22-1 12-2 7-2 1 4-1 12-6 2-8 1h-45l-1-17v-106l1-20z" fill="#010101"/>
<path transform="translate(1932,1246)" d="m0 0h5v145l-5 1-13-1-1-7v-128l1-8z" fill="#010101"/>
<path transform="translate(871,1246)" d="m0 0h5v145l-1 1-17-1-1-29v-86l1-27 6-2z" fill="#010101"/>
<path transform="translate(770,1246)" d="m0 0h5v145l-5 1-13-1-1-52v-69l1-22z" fill="#010101"/>
<path transform="translate(1561,1308)" d="m0 0h15l9 2 7 5 5 10 1 5v22l-3 10-5 8-5 5-6 2-7 1h-11l-1-1v-68z" fill="#FEFEFE"/>
<path transform="translate(978,1308)" d="m0 0h17l10 3 5 4 5 10 1 5v22l-3 10-6 10-7 4-13 2h-8l-1-1z" fill="#FEFEFE"/>
<path transform="translate(1423,1283)" d="m0 0h2l3 12 11 56v3l-7-1h-15l-8 1 2-13 11-53z" fill="#FEFEFE"/>
<path transform="translate(1113,1330)" d="m0 0h62v17h-63v-9z" fill="#010101"/>
<path transform="translate(979,1261)" d="m0 0h18l7 2 5 6 1 3v10l-4 7-6 4-20 1-2-1v-30z" fill="#FEFEFE"/>
<path transform="translate(1561,1261)" d="m0 0h18l7 2 5 6 1 3v10l-4 7-3 3-4 1-19 1-2-1v-29z" fill="#FEFEFE"/>
<path transform="translate(367,1186)" d="m0 0 11 3 25 9 23 11 1 2h-60z" fill="#FEFEFE"/>
</svg>
